<?xml version="1.0" standalone="no"?>
<!DOCTYPE svg PUBLIC "-//W3C//DTD SVG 20010904//EN"
 "http://www.w3.org/TR/2001/REC-SVG-20010904/DTD/svg10.dtd">
<svg version="1.0" xmlns="http://www.w3.org/2000/svg"
 width="600.000000pt" height="600.000000pt" viewBox="0 0 600.000000 600.000000"
 preserveAspectRatio="xMidYMid meet">
<metadata>
Created by potrace 1.11, written by Peter Selinger 2001-2013
</metadata>
<g transform="translate(0.000000,600.000000) scale(0.100000,-0.100000)"
fill="#000000" stroke="none">
<path d="M3297 5678 c-14 -46 -37 -132 -51 -193 -14 -60 -41 -180 -61 -265
-20 -85 -49 -213 -66 -285 -16 -71 -33 -138 -37 -149 -5 -11 -31 -26 -67 -37
-75 -24 -442 -128 -730 -208 -154 -43 -601 -151 -622 -151 -11 0 -43 34 -79
83 -78 104 -283 334 -461 516 -184 188 -192 188 -228 3 -8 -40 -26 -177 -40
-305 -14 -128 -34 -293 -45 -367 -52 -373 -83 -694 -110 -1145 -38 -637 -96
-1132 -210 -1807 -68 -404 -179 -977 -227 -1166 -5 -23 -5 -23 98 -20 l104 3
32 150 c18 83 37 195 42 250 6 55 44 260 85 455 74 350 155 852 175 1080 14
159 39 574 46 760 8 231 23 475 45 760 11 140 25 320 30 400 6 80 20 235 30
345 10 110 24 284 31 388 l12 187 31 -37 c17 -21 108 -126 201 -233 94 -107
203 -238 242 -290 103 -137 109 -143 141 -135 15 3 74 13 132 21 136 19 453
89 700 155 107 28 220 57 250 64 30 8 138 37 240 66 102 29 202 54 222 57 64
7 73 26 117 252 45 227 86 490 96 620 l7 84 23 -59 c60 -159 250 -532 340
-669 78 -118 109 -150 138 -141 26 9 84 15 416 44 134 12 245 20 247 18 2 -2
-7 -31 -21 -65 -67 -164 -102 -388 -91 -585 11 -222 74 -401 188 -539 l40 -48
-94 -60 c-51 -33 -199 -127 -328 -208 -195 -124 -235 -154 -242 -178 -10 -35
-3 -356 12 -514 53 -591 55 -1356 4 -2149 -8 -134 -13 -246 -9 -249 3 -3 49
-8 102 -10 l96 -5 -7 629 c-3 346 -9 796 -12 999 l-7 370 74 13 c139 23 310
126 474 283 44 43 98 93 120 112 38 33 40 38 39 89 -1 29 -3 64 -5 77 -3 20 4
29 36 48 22 13 62 30 89 38 27 8 55 20 62 26 19 16 18 74 -3 90 -41 34 -161
-1 -266 -78 -35 -26 -52 -33 -55 -24 -8 25 -64 81 -87 87 -13 3 -32 1 -43 -5
-34 -18 -34 -53 -3 -139 26 -69 28 -86 20 -117 -7 -26 -7 -46 1 -68 11 -31 9
-34 -37 -75 -133 -120 -292 -217 -375 -228 l-45 -6 -7 123 c-11 217 -25 432
-32 509 l-7 76 139 86 c77 48 227 148 334 222 107 75 200 136 207 136 6 0 18
8 25 19 7 10 89 71 182 136 223 156 342 252 451 367 117 121 175 204 225 319
72 162 85 249 55 364 -36 137 -120 239 -250 305 l-69 35 -171 0 c-178 -1 -296
-10 -660 -51 -178 -20 -568 -71 -672 -88 -17 -2 -30 8 -56 48 -81 122 -160
263 -347 621 -88 169 -142 244 -176 245 -6 0 -22 -37 -37 -82z m1663 -1060 c0
-38 -5 -34 -13 10 -4 21 -3 31 3 27 6 -3 10 -20 10 -37z m-67 -46 c-6 -10 -26
-18 -49 -20 l-39 -3 40 41 c38 39 40 40 49 20 7 -14 6 -28 -1 -38z m286 17
c16 -46 13 -105 -6 -142 -14 -27 -18 -29 -20 -12 -2 11 -11 39 -20 63 -14 40
-14 47 2 83 10 21 21 39 26 39 4 0 12 -14 18 -31z m-489 -34 c-6 -15 -13 -25
-16 -23 -2 3 1 17 7 32 16 34 23 27 9 -9z m710 -32 c0 -12 -4 -25 -10 -28 -6
-4 -10 6 -10 24 0 16 -3 38 -6 48 -6 16 -5 16 9 -2 9 -11 17 -30 17 -42z m-83
-55 c-3 -8 -6 -5 -6 6 -1 11 2 17 5 13 3 -3 4 -12 1 -19z m-625 -290 c-8 -8
-9 -4 -5 13 4 13 8 18 11 10 2 -7 -1 -18 -6 -23z m415 -10 c-3 -8 -6 -5 -6 6
-1 11 2 17 5 13 3 -3 4 -12 1 -19z m-560 -166 c9 -23 13 -45 10 -48 -10 -10
-27 34 -32 83 -2 26 -2 39 1 28 3 -11 12 -39 21 -63z m643 20 c0 -5 -7 -17
-15 -28 -14 -18 -14 -17 -4 9 12 27 19 34 19 19z m-175 -53 c4 -11 4 -32 0
-47 -7 -27 -7 -27 -25 13 -12 28 -14 42 -6 47 18 12 24 9 31 -13z m-101 -83
c8 -29 7 -39 -4 -46 -21 -13 -40 8 -40 45 0 59 30 60 44 1z"/>
<path d="M2545 4142 c-78 -50 -128 -141 -128 -233 0 -69 25 -122 76 -163 31
-25 49 -31 100 -34 53 -3 70 1 116 25 30 15 69 45 85 66 29 37 31 44 31 126 0
81 -2 91 -30 130 -48 70 -88 95 -159 99 -47 2 -68 -1 -91 -16z"/>
<path d="M5216 3554 c-24 -24 -19 -30 7 -8 12 10 24 20 26 21 2 2 -1 3 -7 3
-6 0 -18 -7 -26 -16z"/>
<path d="M5261 3567 c2 -1 14 -11 27 -21 12 -11 22 -16 22 -13 0 10 -31 37
-42 37 -6 0 -9 -1 -7 -3z"/>
<path d="M5246 3476 c-10 -39 -66 -97 -115 -119 l-43 -19 29 -18 c42 -25 81
-75 94 -121 l12 -39 16 31 c17 36 78 84 134 107 l37 15 -37 17 c-52 24 -83 60
-103 120 -16 47 -18 49 -24 26z"/>
<path d="M5156 3451 l-30 -36 34 32 c19 18 32 34 29 36 -2 2 -17 -12 -33 -32z"/>
<path d="M5330 3443 c0 -5 12 -20 28 -34 l27 -24 -25 30 c-14 17 -26 32 -27
34 -2 2 -3 0 -3 -6z"/>
<path d="M5420 3373 c48 -18 63 -62 33 -95 -20 -22 -11 -24 11 -2 9 8 16 26
16 39 0 27 -36 65 -59 64 -14 0 -14 -1 -1 -6z"/>
<path d="M5001 3338 c-1 -27 21 -58 42 -58 6 0 2 7 -10 15 -12 8 -24 28 -26
43 l-4 27 -2 -27z"/>
<path d="M5110 3245 c13 -14 26 -25 28 -25 3 0 -5 11 -18 25 -13 14 -26 25
-28 25 -3 0 5 -11 18 -25z"/>
<path d="M5338 3215 c-36 -25 -65 -62 -55 -72 3 -2 8 5 12 17 4 11 24 32 46
47 34 22 46 33 36 33 -1 0 -19 -11 -39 -25z"/>
<path d="M5160 3144 c0 -22 42 -64 64 -64 22 0 56 27 56 46 0 4 -7 -2 -16 -14
-23 -33 -60 -29 -84 11 -11 17 -20 27 -20 21z"/>
<path d="M2664 2704 c-16 -24 -16 -26 4 -54 12 -16 24 -46 28 -68 l6 -39 -58
-32 c-38 -22 -125 -100 -259 -231 -184 -181 -206 -200 -256 -214 -85 -26 -191
-30 -326 -12 -172 23 -258 21 -283 -4 -46 -46 -16 -71 120 -104 268 -64 486
-57 618 20 26 15 135 115 244 221 108 106 198 193 200 193 2 0 20 -6 41 -14
70 -24 191 9 246 67 19 21 22 34 20 75 -4 48 -3 51 22 56 77 15 80 113 4 132
-30 7 -84 -9 -152 -47 l-51 -28 -6 24 c-3 13 -20 37 -37 54 -41 41 -100 44
-125 5z"/>
</g>
</svg>
